<?xml version="1.0" encoding="utf-8"?>
<!-- Generator: Adobe Illustrator 16.0.0, SVG Export Plug-In . SVG Version: 6.00 Build 0)  -->
<!DOCTYPE svg PUBLIC "-//W3C//DTD SVG 1.0//EN" "http://www.w3.org/TR/2001/REC-SVG-20010904/DTD/svg10.dtd">
<svg version="1.0" id="Layer_1" xmlns="http://www.w3.org/2000/svg" xmlns:xlink="http://www.w3.org/1999/xlink" x="0px" y="0px"
	 width="26px" height="17px" viewBox="0 0 26 17" enable-background="new 0 0 26 17" xml:space="preserve">
<g>
	<defs>
		<rect id="SVGID_1_" x="4.087" y="-1" width="17.913" height="17.914"/>
	</defs>
	<clipPath id="SVGID_2_">
		<use xlink:href="#SVGID_1_"  overflow="visible"/>
	</clipPath>
	<path clip-path="url(#SVGID_2_)" fill="#1D1D1B" d="M18.27,12.506l-2.834-2.795c0.492-0.775,0.779-1.693,0.779-2.674
		C16.215,4.254,13.929,2,11.107,2C8.288,2,6,4.254,6,7.037C6,9.818,8.18,12,11,12c0.906,0,1.865-0.16,2.602-0.568l2.879,2.84
		c0.123,0.119,0.318,0.119,0.439,0l1.35-1.33C18.391,12.822,18.391,12.627,18.27,12.506 M11.107,10.477
		c-1.926,0-3.488-1.541-3.488-3.44c0-1.9,1.562-3.441,3.488-3.441c1.928,0,3.488,1.541,3.488,3.441
		C14.596,8.936,13.035,10.477,11.107,10.477"/>
</g>
<polyline fill="#1D1D1B" points="25,8 22.5,10.984 20,8 "/>
<rect id="_x3C_Slice_x3E_" fill="none" width="26" height="17"/>
</svg>
