<?xml version="1.0" encoding="utf-8"?>
<!-- Generator: Adobe Illustrator 16.0.0, SVG Export Plug-In . SVG Version: 6.00 Build 0)  -->
<!DOCTYPE svg PUBLIC "-//W3C//DTD SVG 1.1//EN" "http://www.w3.org/Graphics/SVG/1.1/DTD/svg11.dtd">
<svg version="1.1" id="Layer_1" xmlns="http://www.w3.org/2000/svg" xmlns:xlink="http://www.w3.org/1999/xlink" x="0px" y="0px"
	 width="30px" height="30px" viewBox="0 0 30 30" enable-background="new 0 0 30 30" xml:space="preserve">
<g>
	<path fill="#010101" d="M26.078,13.153h-1.107c-0.508,0-1.047-0.396-1.197-0.882l-0.637-1.546
		c-0.238-0.446-0.141-1.107,0.217-1.466l0.787-0.785c0.359-0.36,0.359-0.947,0-1.307l-1.309-1.305c-0.357-0.359-0.945-0.359-1.305,0
		L20.74,6.648c-0.357,0.359-1.02,0.457-1.467,0.216L17.73,6.229c-0.484-0.15-0.883-0.689-0.883-1.197V3.924
		C16.848,3.417,16.432,3,15.924,3h-1.846c-0.508,0-0.924,0.417-0.924,0.924v1.108c0,0.508-0.396,1.047-0.881,1.197l-1.545,0.635
		c-0.449,0.241-1.107,0.144-1.467-0.216L8.475,5.862c-0.359-0.359-0.945-0.359-1.305,0L5.865,7.167
		c-0.361,0.359-0.361,0.947,0,1.306l0.783,0.786c0.359,0.359,0.459,1.02,0.217,1.466L6.23,12.272
		c-0.152,0.485-0.689,0.882-1.197,0.882l-1.109-0.001C3.416,13.153,3,13.569,3,14.077v1.846c0,0.507,0.416,0.923,0.924,0.923h1.109
		c0.508,0.002,1.045,0.398,1.195,0.883l0.637,1.547c0.241,0.447,0.143,1.109-0.217,1.467l-0.785,0.785
		c-0.359,0.359-0.359,0.945,0,1.307l1.307,1.305c0.359,0.359,0.945,0.359,1.305,0l0.787-0.785c0.358-0.357,1.018-0.455,1.463-0.215
		l1.549,0.637c0.484,0.15,0.881,0.689,0.881,1.197v1.105c0,0.506,0.416,0.922,0.924,0.922h1.846c0.508,0,0.924-0.416,0.924-0.922
		v-1.105c0-0.508,0.398-1.047,0.883-1.197l1.547-0.637c0.447-0.24,1.107-0.143,1.467,0.215l0.783,0.785
		c0.359,0.359,0.947,0.359,1.305,0l1.309-1.305c0.359-0.361,0.359-0.947,0-1.307l-0.787-0.785c-0.357-0.357-0.455-1.02-0.217-1.467
		l0.637-1.547c0.15-0.484,0.691-0.881,1.197-0.881h1.107c0.508,0,0.922-0.416,0.922-0.923v-1.848
		C27,13.569,26.586,13.153,26.078,13.153z M19.619,14.999c0,2.55-2.066,4.615-4.615,4.615c-2.551,0-4.617-2.064-4.617-4.615
		c0-2.549,2.066-4.615,4.617-4.615C17.553,10.383,19.619,12.45,19.619,14.999z"/>
</g>
</svg>
